# AST/ASF file generated using VICON BodyLanguage
# -----------------------------------------------
:version 1.10
:name VICON
:units
  mass 1.0
  length 0.45
  angle deg
:documentation
   .ast/.asf automatically generated from VICON data using
   VICON BodyBuilder and BodyLanguage model FoxedUp or BRILLIANT.MOD
:root
   order TX TY TZ RX RY RZ
   axis XYZ
   position 0 0 0  
   orientation 0 0 0 
:bonedata
  begin
     id 1 
     name lhipjoint
     direction 0.64773 -0.699417 0.302095 
     length 2.48597 
     axis 0 0 0  XYZ
  end
  begin
     id 2 
     name lfemur
     direction 0.34202 -0.939693 0  
     length 6.71947  
     axis 0 0 20  XYZ
    dof rx ry rz
    limits (-160.0 20.0)
           (-70.0 70.0)
           (-60.0 70.0)
  end
  begin
     id 3 
     name ltibia
     direction 0.34202 -0.939693 0   
     length 8.08777   
     axis 0 0 20   XYZ
    dof rx
    limits (-10.0 170.0)
  end
  begin
     id 4 
     name lfoot
     direction 0.0808503 -0.222134 0.971658   
     length 2.08264   
     axis -90 7.62852e-016 20   XYZ
    dof rx rz
    limits (-45.0 90.0)
           (-70.0 20.0)
  end
  begin
     id 5 
     name ltoes
     direction 1.53502e-011 -4.22007e-011 1   
     length 1.04662   
     axis -90 7.62852e-016 20   XYZ
    dof rx
    limits (-90.0 20.0)
  end
  begin
     id 6 
     name rhipjoint
     direction -0.610924 -0.726792 0.313919   
     length 2.39233  
     axis 0 0 0  XYZ 
  end
  begin
     id 7 
     name rfemur
     direction -0.34202 -0.939693 0   
     length 6.96955   
     axis 0 0 -20   XYZ
    dof rx ry rz
    limits (-160.0 20.0)
           (-70.0 70.0)
           (-70.0 60.0)
  end
  begin
     id 8 
     name rtibia
     direction -0.34202 -0.939693 0   
     length 8.19584   
     axis 0 0 -20   XYZ
    dof rx
    limits (-10.0 170.0)
 end
 begin
     id 9 
     name rfoot
     direction -0.077777 -0.213691 0.9738   
     length 2.07539  
     axis -90 -7.62852e-016 -20   XYZ
    dof rx rz
    limits (-45.0 90.0)
           (-20.0 70.0)
  end
  begin
     id 10 
     name rtoes
     direction -1.53558e-011 -4.22006e-011 1   
     length 1.04381   
     axis -90 -7.62852e-016 -20   XYZ
    dof rx
    limits (-90.0 20.0)
  end
  begin
     id 11 
     name lowerback
     direction -0.00971646 0.996074 0.0879841   
     length 1.67643   
     axis 0 0 0   XYZ
    dof rx ry rz
    limits (-20.0 45.0)
           (-30.0 30.0)
           (-30.0 30.0)
  end
  begin
     id 12 
     name upperback
     direction 0.0127391 0.991676 0.128127   
     length 1.63741   
     axis 0 0 0   XYZ
    dof rx ry rz
    limits (-20.0 45.0)
           (-30.0 30.0)
           (-30.0 30.0)
  end
  begin
     id 13 
     name thorax
     direction 0.0167583 0.996049 0.0872067   
     length 1.65931   
     axis 0 0 0   XYZ
    dof rx ry rz
    limits (-20.0 45.0)
           (-30.0 30.0)
           (-30.0 30.0)
  end
  begin
     id 14 
     name lowerneck
     direction -0.0317829 0.998312 0.0486079   
     length 1.79021   
     axis 0 0 0   XYZ
    dof rx ry rz
    limits (-20.0 45.0)
           (-30.0 30.0)
           (-30.0 30.0)
  end
  begin
     id 15 
     name upperneck
     direction 0.0896851 0.972452 -0.215159   
     length 1.78797   
     axis 0 0 0   XYZ
    dof rx ry rz
    limits (-20.0 45.0)
           (-30.0 30.0)
           (-30.0 30.0)
  end
  begin
     id 16
     name head
     direction 0.0310949 0.996503 -0.0775582  
     length 1.81549  
     axis 0 0 0   XYZ
    dof rx ry rz
    limits (-20.0 45.0)
           (-30.0 30.0)
           (-30.0 30.0)
  end
  begin
     id 17 
     name lclavicle
     direction 0.853638 0.502051 -0.138733  
     length 3.31627  
     axis 0 0 0   XYZ
    dof ry rz
    limits (-20.0 10.0)
           (0.0 20.0)
  end
  begin
     id 18 
     name lhumerus
     direction 1 -4.48962e-011 -1.41788e-018   
     length 5.54893   
     axis 180 -30 -90   XYZ
    dof rx ry rz
    limits (-60.0 90.0)
           (-90.0 90.0)
           (-90.0 90.0)
  end
  begin
     id 19
     name lradius
     direction 1 -4.48962e-011 -4.95754e-027   
     length 3.02898   
     axis 180 -30 -90   XYZ
    dof rx
    limits (-10.0 170.0)
  end
  begin
     id 20
     name lwrist
     direction 1 -4.48952e-011 -1.03764e-026   
     length 1.51449   
     axis 9.09556e-015 90 90   XYZ
    dof ry
    limits (-180.0 0.0)
 end
  begin
     id 21 
     name lhand
     direction 1 -4.4902e-011 -2.07528e-026   
     length 0.640951   
     axis 1.3242e-014 90 90   XYZ
    dof rx rz
    limits (-90.0 90.0)
           (-45.0 45.0)
  end
  begin
     id 22 
     name lfingers
     direction 1 -4.49014e-011 -4.15056e-026   
     length 0.516751   
     axis 2.64841e-014 90 90   XYZ
    dof rx
    limits (0.0 90.0)
  end
  begin
     id 23
     name lthumb
     direction 0.707107 -6.35008e-011 0.707107   
     length 0.741954   
     axis -90 45 2.85299e-015   XYZ
    dof rx rz
    limits (-45.0 45.0)
           (-45.0 45.0)
  end
  begin
     id 24 
     name rclavicle
     direction -0.888531 0.455324 -0.0565039   
     length 3.20126  
     axis 0 0 0   XYZ 
    dof ry rz
    limits (-10.0 20.0)
           (-20.0 0.0)
  end
  begin
     id 25 
     name rhumerus
     direction -1 -4.48946e-011 -8.98298e-028  
     length 5.3519   
     axis 180 30 90   XYZ
    dof rx ry rz
    limits (-90.0 60.0)
           (-90.0 90.0)
           (-90.0 90.0)
  end
  begin
     id 26 
     name rradius
     direction -1 -4.4899e-011 -3.18779e-027   
     length 3.02531   
     axis 180 30 90   XYZ
    dof rx
    limits (-10.0 170.0)
  end
  begin
     id 27 
     name rwrist
     direction -1 -4.4897e-011 -1.03764e-026   
     length 1.51266   
     axis 9.09556e-015 -90 -90   XYZ
    dof ry
    limits (-180.0 0.0)
  end
  begin
     id 28
     name rhand
     direction -1 -4.48941e-011 -2.07528e-026   
     length 0.78389   
     axis 1.3242e-014 -90 -90   XYZ
    dof rx rz
    limits (-90.0 90.0)
           (-45.0 45.0)
  end
  begin
     id 29
     name rfingers
     direction -1 -4.49012e-011 -4.15056e-026   
     length 0.631992   
     axis 2.64841e-014 -90 -90   XYZ
    dof rx
    limits (0.0 90.0)
  end
  begin
     id 30
     name rthumb
     direction -0.707107 -6.3496e-011 0.707107   
     length 0.907418   
     axis -90 -45 -2.85299e-015   XYZ
    dof rx rz
    limits (-45.0 45.0)
           (-45.0 45.0)
  end
:hierarchy
  begin
    root lhipjoint rhipjoint lowerback
    lhipjoint lfemur
    lfemur ltibia
    ltibia lfoot
    lfoot ltoes
    rhipjoint rfemur
    rfemur rtibia
    rtibia rfoot
    rfoot rtoes
    lowerback upperback
    upperback thorax
    thorax lowerneck lclavicle rclavicle
    lowerneck upperneck
    upperneck head
    lclavicle lhumerus
    lhumerus lradius
    lradius lwrist
    lwrist lhand lthumb
    lhand lfingers
    rclavicle rhumerus
    rhumerus rradius
    rradius rwrist
    rwrist rhand rthumb
    rhand rfingers
  end

#!OML:ASF E:\Style3\Style3.ASF
:FULLY-SPECIFIED
:DEGREES
1269
root 0.689703 17.8046 0.717268 -166.951 87.9978 178.533
lowerback -11.9054 -2.04994 -0.938591
upperback -9.6918 -2.08695 0.91123
thorax -3.42592 -0.738334 1.28007
lowerneck -11.7303 -1.66655 -3.13559
upperneck 17.5843 -2.86623 7.13008
head 7.48375 -0.84562 2.58528
rclavicle -2.6339e-015 8.64713e-015
rhumerus 16.3648 48.8796 0.995202
rradius 127.024
rwrist -46.9502
rhand 13.6393 19.1958
rfingers 7.12502
rthumb 38.5693 -6.44621
lclavicle -2.6339e-015 8.64713e-015
lhumerus -2.98286 -47.509 20.7187
lradius 133.412
lwrist 82.4132
lhand 22.146 26.555
lfingers 7.12502
lthumb 46.5287 49.4261
rfemur -12.1819 10.7535 18.7186
rtibia 14.802
rfoot -16.2235 -22.9839
rtoes -12.2552
lfemur -4.84219 -21.5926 -14.1555
ltibia 1.74931e-014
lfoot -9.89298 25.4017
ltoes -15.939
1270
root 0.678352 17.8043 0.715938 -166.279 87.9759 179.283
lowerback -11.8292 -2.0681 -0.928977
upperback -9.56524 -2.12528 0.92313
thorax -3.33002 -0.764513 1.28385
lowerneck -11.8869 -1.66485 -3.15463
upperneck 17.4466 -2.87792 7.25072
head 7.46968 -0.842707 2.62494
rclavicle 6.95746e-015 -4.67144e-015
rhumerus 15.9231 51.4185 -0.637351
rradius 126.233
rwrist -45.9617
rhand 12.7571 19.6677
rfingers 7.12502
rthumb 37.7365 -6.20275
lclavicle 6.95746e-015 -4.67144e-015
lhumerus -5.0428 -48.3908 24.3044
lradius 132.61
lwrist 83.8508
lhand 21.2851 26.5431
lfingers 7.12502
lthumb 45.7303 49.7491
rfemur -12.1018 10.7115 18.7569
rtibia 14.7496
rfoot -16.2529 -22.9439
rtoes -12.1971
lfemur -4.8015 -21.6144 -14.1359
ltibia -1.74931e-014
lfoot -10.057 25.3617
ltoes -15.3638
1271
root 0.666663 17.8049 0.716705 -165.312 88.0023 180.261
lowerback -11.7869 -2.06953 -0.952224
upperback -9.47068 -2.13471 0.947205
thorax -3.2495 -0.772287 1.32078
lowerneck -12.0321 -1.68015 -3.16375
upperneck 17.311 -2.9056 7.32061
head 7.45428 -0.851699 2.64456
rclavicle -3.10104e-014 2.78299e-015
rhumerus 15.5242 53.8382 -2.26312
rradius 125.47
rwrist -44.9865
rhand 11.8374 19.7829
rfingers 7.12502
rthumb 36.8669 -6.31587
lclavicle -3.10104e-014 2.78299e-015
lhumerus -7.09977 -49.1403 27.968
lradius 131.768
lwrist 85.3416
lhand 19.5658 26.3288
lfingers 7.12502
lthumb 44.1303 50.1629
rfemur -12.0966 10.7184 18.7832
rtibia 14.6753
rfoot -16.2409 -22.8679
rtoes -12.0607
lfemur -4.8324 -21.5809 -14.0979
ltibia 1.43125e-014
lfoot -9.80607 25.416
ltoes -16.0608
1272
root 0.652837 17.8075 0.717076 -163.846 88.0284 181.758
lowerback -11.6999 -2.06185 -0.970566
upperback -9.37361 -2.13363 0.987202
thorax -3.19042 -0.774818 1.37366
lowerneck -12.1004 -1.6962 -3.17754
upperneck 17.0842 -2.91951 7.33202
head 7.39376 -0.863675 2.64583
rclavicle -7.82715e-015 -1.33186e-014
rhumerus 14.9629 56.0274 -4.12004
rradius 124.628
rwrist -44.0874
rhand 11.0788 19.7969
rfingers 7.12502
rthumb 36.1488 -6.48291
lclavicle -7.82715e-015 -1.33186e-014
lhumerus -9.19078 -49.8545 31.8009
lradius 130.983
lwrist 86.727
lhand 17.2877 26.0952
lfingers 7.12502
lthumb 42.0005 50.6851
rfemur -12.1187 10.702 18.8284
rtibia 14.6539
rfoot -16.0787 -22.8384
rtoes -12.2458
lfemur -4.83856 -21.5414 -14.0324
ltibia 1.11319e-014
lfoot -9.91454 25.346
ltoes -15.6857
1273
root 0.637993 17.8089 0.716728 -162.354 88.0184 183.295
lowerback -11.5661 -2.0409 -0.963867
upperback -9.28798 -2.11744 0.994807
thorax -3.17148 -0.771518 1.3816
lowerneck -12.2062 -1.72452 -3.13576
upperneck 16.9355 -2.96275 7.34006
head 7.36643 -0.883334 2.63482
rclavicle -8.27441e-015 -5.56597e-015
rhumerus 14.1078 57.9845 -6.32882
rradius 123.687
rwrist -43.3383
rhand 10.8601 19.9139
rfingers 7.12502
rthumb 35.9416 -6.41694
lclavicle -8.27441e-015 -5.56597e-015
lhumerus -11.1386 -50.4808 35.5337
lradius 130.246
lwrist 88.0424
lhand 14.9572 26.0449
lfingers 7.12502
lthumb 39.8114 51.3275
rfemur -12.1354 10.636 18.8908
rtibia 14.6573
rfoot -15.8594 -22.8597
rtoes -12.4818
lfemur -4.84536 -21.5387 -13.9729
ltibia 1.59028e-015
lfoot -9.7869 25.3511
ltoes -15.8991
